<svg width="218" height="58" viewBox="0 0 218 58" fill="none" xmlns="http://www.w3.org/2000/svg">
<g filter="url(#filter0_d_235_1297)">
<path d="M4.90661 22.7937L5.87396 20.3371C6.20242 19.5227 6.53761 18.7129 6.87731 17.903C7.22151 17.0954 7.55896 16.2855 7.91215 15.4869L8.17087 14.8997L8.97399 14.8502C11.2214 14.713 13.4666 14.6027 15.714 14.4925L19.084 14.344C19.9411 14.3058 20.8004 14.272 21.6598 14.2405C22.4089 13.4802 23.2008 12.767 24.031 12.0966C24.5371 11.6872 25.0658 11.3182 25.59 10.9358C26.1276 10.5759 26.6631 10.2114 27.2165 9.88071C29.4144 8.51517 31.7743 7.46908 34.1769 6.61196C36.584 5.77509 39.0452 5.13843 41.5558 4.702C42.8043 4.48378 44.0619 4.32181 45.3262 4.20033C45.9584 4.13959 46.5928 4.09009 47.2362 4.05635L48.2013 4.0136C48.5342 4.00461 48.8289 3.99561 49.2181 4.00236L51.4498 4.0361L51.47 6.25201C51.47 6.6412 51.47 6.93366 51.4565 7.27111L51.416 8.23621C51.38 8.87511 51.3305 9.50727 51.2698 10.1462C51.1483 11.4105 50.9886 12.668 50.7659 13.9166C50.3317 16.4272 49.695 18.8861 48.8559 21.2932C48.0101 23.7296 46.919 26.0513 45.5804 28.2537C44.3589 30.2874 42.9056 32.1411 41.2228 33.8103L41.1239 36.3952L40.9889 39.7764C40.8854 42.0283 40.7774 44.2802 40.6492 46.5344L40.6042 47.3353L40.0125 47.594C39.2116 47.9494 38.4018 48.2824 37.5964 48.6288C36.791 48.973 35.9766 49.3037 35.1623 49.6322L32.7056 50.6018C31.8868 50.91 31.0589 51.2294 30.2243 51.5174C30.9239 50.9707 31.637 50.4623 32.3479 49.9381L34.4986 48.4151C35.2207 47.9134 35.9429 47.4162 36.6695 46.9258C37.178 46.5884 37.6864 46.2442 38.1925 45.909C38.0801 43.8618 37.9811 41.8146 37.8866 39.7674L37.7516 36.3884L37.6256 33.0094L37.5986 32.3278L38.1566 31.7294C38.9259 30.9038 39.6368 30.0286 40.2847 29.104C40.6154 28.6451 40.9169 28.1659 41.2251 27.6935C41.5333 27.2211 41.81 26.7239 42.0755 26.2222C43.1598 24.2043 44.0417 22.1009 44.7211 19.9119C45.4162 17.705 45.9381 15.4599 46.2913 13.1742C46.4713 12.0314 46.6175 10.8796 46.7165 9.72998C46.748 9.37904 46.775 9.02809 46.7952 8.67939C46.4465 8.70414 46.0956 8.72889 45.7469 8.76038C44.5951 8.85937 43.4455 9.00334 42.3027 9.18782C40.017 9.53651 37.7696 10.0584 35.5649 10.7558C33.376 11.433 31.2748 12.3148 29.2569 13.3992C28.753 13.6646 28.2716 13.9593 27.7834 14.2495C27.311 14.56 26.8295 14.8592 26.3751 15.1899C25.4482 15.8356 24.5731 16.5442 23.7452 17.3136L23.1536 17.8602L22.4697 17.84C21.3471 17.8108 20.2245 17.7703 19.0997 17.7253L15.7297 17.5948C13.6915 17.5048 11.6511 17.4148 9.61065 17.3068C9.27545 17.8153 8.929 18.3214 8.5938 18.8276C8.10563 19.5542 7.60845 20.2786 7.10678 20.9985L5.57926 23.1492C5.05734 23.8601 4.54442 24.5732 4 25.2729C4.28121 24.4405 4.59841 23.6194 4.90661 22.7937Z" fill="#C78851"/>
<path d="M33.0521 38.5728C33.1623 38.7618 33.2321 38.9643 33.2635 39.1803C33.2928 39.3962 33.2815 39.6099 33.2276 39.8237C33.1713 40.0351 33.0791 40.2263 32.9486 40.4018C32.8159 40.5773 32.6561 40.719 32.4694 40.8315L16.5891 50.1946L30.5617 38.1634C30.6359 38.0982 30.7169 38.0397 30.8002 37.9902C30.9891 37.88 31.1916 37.8102 31.4053 37.781C31.6213 37.7517 31.835 37.763 32.0465 37.8192C32.2579 37.8732 32.4492 37.9654 32.6224 38.0959C32.7979 38.2264 32.9396 38.3861 33.0521 38.5728Z" fill="#C78851"/>
<path d="M15.1133 23.0592C15.2573 22.8972 15.426 22.769 15.6217 22.6745C15.8152 22.5778 16.0199 22.5238 16.2359 22.508C16.4519 22.4945 16.6633 22.5215 16.868 22.589C17.075 22.6588 17.2595 22.7645 17.4237 22.904C17.5879 23.0457 17.7184 23.2144 17.8174 23.4057C17.9141 23.5991 17.9726 23.8038 17.9906 24.0198C18.0086 24.2358 17.9839 24.4472 17.9186 24.6542C17.8534 24.8589 17.7499 25.0457 17.6104 25.2121L5.57926 39.178L14.9423 23.2977C14.9941 23.2144 15.0503 23.1334 15.1133 23.0592Z" fill="#C78851"/>
<path d="M28.9577 19.579C28.9577 19.336 28.969 19.0931 28.9959 18.8501C29.0207 18.6071 29.0612 18.3664 29.1129 18.128C29.1647 17.8895 29.2277 17.6555 29.3041 17.4238C29.3806 17.1921 29.4706 16.9649 29.5719 16.7444C29.6708 16.5217 29.7833 16.3057 29.9071 16.0965C30.0308 15.885 30.1658 15.6826 30.312 15.4869C30.4582 15.2911 30.6135 15.1044 30.7777 14.9244C30.9441 14.7467 31.1196 14.5757 31.3018 14.416C31.4863 14.2563 31.6775 14.1056 31.8778 13.9661C32.0757 13.8244 32.2827 13.6961 32.4964 13.5791C32.7101 13.4599 32.9283 13.3542 33.1533 13.2597C33.3783 13.1652 33.6077 13.082 33.8417 13.0122C34.0734 12.9425 34.3119 12.884 34.5504 12.839C34.7911 12.794 35.0318 12.7625 35.2747 12.7423C35.5177 12.7243 35.7607 12.7175 36.0059 12.7243C36.2488 12.731 36.4918 12.7513 36.7325 12.7828C36.9755 12.8165 37.2139 12.8615 37.4502 12.92C37.6864 12.9785 37.9203 13.0482 38.1498 13.1315C38.3793 13.2147 38.6042 13.3092 38.8225 13.4172C39.0407 13.5229 39.2544 13.6421 39.4614 13.7704C39.6683 13.9008 39.8663 14.0403 40.0575 14.1911C40.2487 14.3418 40.4332 14.5038 40.6064 14.6725C40.7819 14.8435 40.9461 15.0234 41.1014 15.2102C41.2566 15.3991 41.4028 15.5948 41.5355 15.7973C41.6705 16.002 41.7942 16.2112 41.9067 16.4272C42.0192 16.6432 42.1182 16.8659 42.2082 17.0931C42.2959 17.3203 42.3724 17.552 42.4354 17.786C42.4984 18.0222 42.5501 18.2607 42.5884 18.5014C42.6266 18.7421 42.6514 18.9851 42.6649 19.228C42.6784 19.471 42.6761 19.714 42.6626 19.9592C42.6491 20.2021 42.6244 20.4429 42.5839 20.6836C42.5456 20.9243 42.4939 21.1627 42.4287 21.399C42.3634 21.6329 42.2869 21.8646 42.1969 22.0919C42.1092 22.3168 42.008 22.5395 41.8955 22.7555C41.783 22.9715 41.657 23.1807 41.522 23.3832C41.3871 23.5879 41.2408 23.7813 41.0856 23.9703C40.9304 24.157 40.7639 24.3348 40.5884 24.5057C40.4152 24.6745 40.2307 24.8342 40.0373 24.9849C39.846 25.1356 39.6458 25.2751 39.4389 25.4033C39.2319 25.5316 39.0204 25.6486 38.8 25.7565C38.5795 25.8623 38.3568 25.9568 38.1273 26.0378C37.8956 26.121 37.6639 26.1907 37.4254 26.247C37.1892 26.3055 36.9507 26.3482 36.7078 26.3797C36.4671 26.4134 36.2241 26.4314 35.9789 26.4382C35.7359 26.4427 35.493 26.4359 35.25 26.4157C35.007 26.3954 34.7663 26.3617 34.5256 26.3167C34.2871 26.2717 34.0509 26.2132 33.817 26.1412C33.583 26.0715 33.3558 25.9883 33.1308 25.8915L5.84247 49.9314L29.7518 22.7892C29.2187 21.7859 28.9532 20.7151 28.9577 19.579ZM38.1341 21.8984C38.3118 21.7229 38.467 21.5272 38.5997 21.3135C38.7325 21.0998 38.8404 20.8748 38.9214 20.6386C39.0024 20.4001 39.0542 20.1571 39.0812 19.9052C39.1059 19.6555 39.1014 19.4058 39.0699 19.1583C39.0362 18.9086 38.9777 18.6656 38.8877 18.4317C38.8 18.1954 38.6875 17.9727 38.548 17.7635C38.4085 17.5543 38.2465 17.3653 38.0643 17.1921C37.8821 17.0211 37.6819 16.8704 37.4637 16.7444C37.2477 16.6184 37.0182 16.5195 36.7775 16.4452C36.5368 16.3732 36.2916 16.3282 36.0419 16.3102C35.7899 16.2945 35.5424 16.3057 35.2927 16.3462C35.0453 16.3867 34.8046 16.4542 34.5728 16.5509C34.3411 16.6454 34.1229 16.7669 33.9182 16.9131C33.7135 17.0594 33.529 17.2258 33.3625 17.4148C33.1961 17.6015 33.0543 17.8063 32.9351 18.029C32.8159 18.2494 32.7236 18.4812 32.6584 18.7241C32.5931 18.9671 32.5549 19.2145 32.5459 19.4643C32.5392 19.7162 32.5572 19.9637 32.6066 20.2111C32.6539 20.4564 32.7304 20.6948 32.8339 20.9243C32.9373 21.1537 33.0656 21.3675 33.2163 21.5677C33.3693 21.7679 33.5425 21.9456 33.736 22.1054C33.9294 22.2673 34.1387 22.4023 34.3659 22.5125C34.5908 22.625 34.8248 22.7105 35.07 22.7667C35.313 22.8252 35.5604 22.8545 35.8124 22.8545C36.2488 22.8545 36.6673 22.7712 37.0677 22.6048C37.4704 22.4383 37.8259 22.1998 38.1341 21.8916V21.8984Z" fill="#C78851"/>
<path d="M75.47 42.5121L81.8376 45.9285V35.1626L88.2026 38.5789L94.5701 35.1626V45.9285L100.938 42.5121V16.5251L88.2026 9.22717L75.47 16.5251V42.5121ZM94.5701 27.8104L88.2026 31.2268L81.8376 27.8104V20.4583L88.2026 16.5251L94.5701 20.4583V27.8104Z" fill="#C78851"/>
<path d="M112.428 27.4486V20.0965L118.331 16.6801V15.2304L126.148 19.6313L131.531 16.6801L118.848 9.33054L106.063 16.6801V31.3818L118.848 38.734V31.3818C115.379 29.4152 113.878 28.4306 112.428 27.4486ZM118.848 24.0323L125.163 27.4486V34.7982L118.848 38.734V40.1837L110.981 35.7828L106.063 38.734L118.848 46.0836L131.531 38.734V24.0323C127.133 21.5462 122.732 19.1145 118.848 16.6801V24.0323Z" fill="#C78851"/>
<path d="M135.207 20.1998V27.552L141.575 24.1356V46.1869L147.891 42.2537V20.1998L154.258 16.7835V9.43391L135.207 20.1998Z" fill="#C78851"/>
<path d="M170.665 9.53728L157.881 16.8868V42.3571L164.248 46.2903V35.0049L183.348 46.2903V38.9407L177.032 35.0049L183.348 31.5886V16.8868L170.665 9.53728ZM170.665 16.8868L177.032 20.3032V27.6554L170.665 31.5886L164.248 27.6554V20.3032L170.665 16.8868Z" fill="#C78851"/>
<path d="M188.475 42.5121L194.842 45.9285V35.1626L201.207 38.5789L207.575 35.1626V45.9285L213.942 42.5121V16.5251L201.207 9.22717L188.475 16.5251V42.5121ZM207.575 27.8104L201.207 31.2268L194.842 27.8104V20.4583L201.207 16.5251L207.575 20.4583V27.8104Z" fill="#C78851"/>
</g>
<defs>
<filter id="filter0_d_235_1297" x="0" y="-2" width="217.942" height="63.5173" filterUnits="userSpaceOnUse" color-interpolation-filters="sRGB">
<feFlood flood-opacity="0" result="BackgroundImageFix"/>
<feColorMatrix in="SourceAlpha" type="matrix" values="0 0 0 0 0 0 0 0 0 0 0 0 0 0 0 0 0 0 127 0" result="hardAlpha"/>
<feOffset dy="2"/>
<feGaussianBlur stdDeviation="2"/>
<feComposite in2="hardAlpha" operator="out"/>
<feColorMatrix type="matrix" values="0 0 0 0 0 0 0 0 0 0 0 0 0 0 0 0 0 0 0.25 0"/>
<feBlend mode="normal" in2="BackgroundImageFix" result="effect1_dropShadow_235_1297"/>
<feBlend mode="normal" in="SourceGraphic" in2="effect1_dropShadow_235_1297" result="shape"/>
</filter>
</defs>
</svg>
