<svg width="current" height="current" viewBox="0 0 18 18" fill="current" stroke="current" xmlns="http://www.w3.org/2000/svg">
<path d="M1.30022 7.23527L1.64446 6.36204C1.76156 6.07298 1.88069 5.78468 2.00134 5.49714C2.12376 5.21036 2.24416 4.92232 2.36961 4.63806L2.46218 4.42936L2.74774 4.41192C3.54725 4.36341 4.34651 4.32399 5.14526 4.28483L6.3444 4.23177C6.64969 4.21838 6.95523 4.20625 7.26127 4.19538C7.52811 3.92553 7.80937 3.67134 8.1053 3.43333C8.28488 3.28779 8.47331 3.1564 8.65972 3.02046C8.85068 2.89236 9.04139 2.76299 9.23817 2.6455C10.0205 2.16037 10.8597 1.78869 11.7149 1.48423C12.5715 1.18633 13.4467 0.959933 14.3403 0.805046C14.7844 0.727729 15.2319 0.67012 15.6816 0.626913C15.9064 0.605436 16.132 0.587496 16.3614 0.575368L16.7042 0.560461C16.8228 0.557429 16.928 0.554144 17.0664 0.556165L17.8606 0.568293L17.8671 1.35612C17.8671 1.49433 17.8671 1.59869 17.8628 1.71845L17.8479 2.06082C17.8358 2.28797 17.8178 2.5131 17.7963 2.74C17.7526 3.18925 17.6959 3.63622 17.6172 4.08017C17.4624 4.9726 17.2358 5.84684 16.9374 6.70213C16.6366 7.56803 16.2481 8.39275 15.7719 9.17628C15.3371 9.89917 14.8203 10.5574 14.2211 11.1512L14.1867 12.0701L14.1382 13.2713C14.1013 14.0718 14.0633 14.8722 14.0178 15.6732L14.0016 15.9585L13.7909 16.0502C13.5064 16.1763 13.2178 16.295 12.9315 16.4178C12.6449 16.5406 12.355 16.6579 12.0654 16.7749L11.1913 17.1192C10.8999 17.2289 10.6058 17.3421 10.3086 17.4444C10.5572 17.2504 10.8111 17.0695 11.0636 16.8835L11.8294 16.342C12.0859 16.1636 12.3431 15.9873 12.6016 15.8129C12.7827 15.6927 12.9628 15.5704 13.1437 15.4514C13.1032 14.7237 13.0683 13.996 13.0349 13.2683L12.9863 12.0671L12.9416 10.8664L12.9322 10.6238L13.1305 10.4113C13.4044 10.118 13.6571 9.80695 13.888 9.47848C14.0051 9.3155 14.1124 9.1447 14.2222 8.97692C14.3319 8.80915 14.4306 8.63253 14.5247 8.4539C14.9106 7.73656 15.2245 6.98916 15.4658 6.21119C15.7132 5.42715 15.8996 4.62871 16.0248 3.81612C16.0888 3.41008 16.1409 3.00101 16.1763 2.59219C16.1874 2.46737 16.1968 2.34305 16.2044 2.21899C16.0802 2.22733 15.9552 2.23668 15.831 2.24729C15.4216 2.28317 15.0123 2.33396 14.6059 2.39965C13.7922 2.52346 12.9932 2.70917 12.2083 2.95654C11.4298 3.19759 10.6819 3.51115 9.96408 3.89673C9.78501 3.99072 9.61352 4.09558 9.44026 4.19842C9.27207 4.30858 9.10033 4.41521 8.93845 4.5327C8.60914 4.76263 8.29753 5.01429 8.00312 5.28743L7.79243 5.48148L7.54961 5.47491C7.14998 5.46404 6.75035 5.44964 6.35073 5.43398L5.15158 5.38799C4.42618 5.3559 3.70002 5.32331 2.97462 5.28515C2.85473 5.46556 2.7318 5.64546 2.61267 5.82561C2.43866 6.08435 2.26211 6.34157 2.08304 6.59727L1.54 7.36185C1.35409 7.61427 1.17148 7.86795 0.978241 8.11633C1.07764 7.82045 1.19096 7.52887 1.30022 7.23527Z" fill="current" stroke="current"/>
<path d="M11.3142 12.8438C11.3337 12.8772 11.3499 12.9118 11.3625 12.9482C11.3752 12.9843 11.3843 13.0217 11.3896 13.0596C11.3949 13.0977 11.3967 13.1361 11.3944 13.1746C11.3921 13.213 11.3863 13.2506 11.3767 13.288C11.3671 13.3251 11.3539 13.361 11.3372 13.3959C11.3206 13.4305 11.3006 13.4631 11.2773 13.4939C11.2543 13.5245 11.2282 13.5528 11.1997 13.5786C11.1708 13.6041 11.14 13.6268 11.1068 13.6463L5.45712 16.9747L10.4285 12.6978C10.455 12.675 10.4834 12.6546 10.5135 12.6366C10.5466 12.6174 10.5812 12.6015 10.6174 12.5889C10.6538 12.5765 10.691 12.5676 10.7289 12.5623C10.7669 12.557 10.8051 12.5555 10.8433 12.5578C10.8817 12.5601 10.9194 12.5659 10.9566 12.5755C10.9938 12.5851 11.0294 12.5982 11.0641 12.6149C11.0987 12.6316 11.1314 12.6513 11.162 12.6743C11.1926 12.6973 11.2209 12.723 11.2464 12.7516C11.272 12.7801 11.2948 12.811 11.3142 12.8438Z" fill="current" stroke="current"/>
<path d="M4.93204 7.33002C4.95733 7.30147 4.98541 7.2757 5.01576 7.25245C5.04611 7.22946 5.07823 7.2095 5.11263 7.19282C5.14678 7.17589 5.18244 7.1625 5.21937 7.15264C5.2563 7.14279 5.29373 7.13673 5.33167 7.1342C5.36986 7.13167 5.4078 7.13268 5.44549 7.13774C5.48343 7.14254 5.52061 7.15088 5.55678 7.163C5.59295 7.17513 5.6276 7.19055 5.66073 7.20924C5.69387 7.22819 5.72498 7.25017 5.75381 7.27494C5.7829 7.29995 5.80895 7.32724 5.83247 7.35731C5.85599 7.38738 5.87648 7.41921 5.89393 7.45332C5.91113 7.48718 5.92504 7.52255 5.93541 7.55919C5.94578 7.59583 5.95261 7.63322 5.95565 7.67112C5.95868 7.70928 5.95818 7.74718 5.95388 7.78508C5.94958 7.82298 5.94148 7.86012 5.9301 7.89625C5.91847 7.93264 5.90354 7.96751 5.88508 8.00111C5.86687 8.03447 5.84537 8.0658 5.82084 8.09485L1.53949 13.0588L4.87134 7.41492C4.8893 7.38485 4.90953 7.35655 4.93204 7.33002Z" fill="current" stroke="current"/>
<path d="M9.85735 6.09294C9.85735 6.00628 9.8619 5.91987 9.87126 5.8337C9.88036 5.74754 9.89427 5.66189 9.91274 5.57724C9.93095 5.4926 9.95371 5.40922 9.98103 5.32685C10.0083 5.24448 10.04 5.16387 10.0759 5.08504C10.1118 5.00621 10.1518 4.9294 10.1958 4.85486C10.2398 4.78007 10.2878 4.70806 10.3394 4.63857C10.3913 4.56883 10.4467 4.50238 10.5056 4.43871C10.5645 4.37504 10.6265 4.31465 10.6918 4.2578C10.7573 4.20069 10.8253 4.14738 10.8964 4.0976C10.9675 4.04783 11.0408 4.00184 11.1167 3.9599C11.1928 3.91795 11.2707 3.88031 11.3506 3.8467C11.4306 3.8131 11.512 3.78379 11.5952 3.75877C11.6782 3.73376 11.7624 3.71329 11.8477 3.69737C11.9329 3.68145 12.0189 3.67008 12.1054 3.66326C12.1916 3.65619 12.2784 3.65417 12.3651 3.65644C12.4519 3.65897 12.5382 3.66579 12.6241 3.67741C12.7101 3.68903 12.7951 3.7052 12.8794 3.72592C12.9636 3.74664 13.0465 3.77166 13.1282 3.80122C13.2097 3.83053 13.2896 3.86439 13.3675 3.90229C13.4454 3.94044 13.5213 3.98238 13.5946 4.02837C13.6682 4.07461 13.7391 4.12439 13.8071 4.17795C13.8754 4.23152 13.9404 4.28862 14.0024 4.34926C14.0646 4.40965 14.1233 4.47332 14.1784 4.54028C14.2338 4.60699 14.2854 4.67647 14.3332 4.74874C14.381 4.821 14.4248 4.89579 14.4647 4.9726C14.5047 5.04967 14.5403 5.1285 14.5717 5.20935C14.6033 5.28996 14.6304 5.37233 14.6529 5.45596C14.6757 5.5396 14.6939 5.62424 14.7075 5.70964C14.7212 5.7953 14.7303 5.88146 14.7346 5.96787C14.7391 6.05454 14.7389 6.14095 14.7341 6.22762C14.7293 6.31403 14.7199 6.40019 14.706 6.4856C14.6921 6.57125 14.6736 6.65564 14.6506 6.73928C14.6276 6.82291 14.6003 6.90503 14.5684 6.98563C14.5368 7.06623 14.5009 7.14507 14.4607 7.22188C14.4205 7.29869 14.3764 7.37323 14.3281 7.44524C14.2801 7.51725 14.2282 7.58674 14.1728 7.65319C14.1172 7.71989 14.0585 7.78331 13.996 7.8437C13.9338 7.90409 13.8686 7.96094 13.8 8.01425C13.7317 8.06757 13.6607 8.11709 13.5871 8.16282C13.5134 8.20881 13.4376 8.2505 13.3594 8.28815C13.2813 8.3258 13.2016 8.3594 13.1199 8.38846C13.0382 8.41777 12.9552 8.44253 12.8708 8.463C12.7865 8.48321 12.7013 8.49913 12.6153 8.51025C12.5293 8.52162 12.4428 8.52819 12.3563 8.53046C12.2695 8.53248 12.1828 8.52996 12.0963 8.52288C12.01 8.51555 11.924 8.50393 11.8388 8.48751C11.7538 8.47134 11.6696 8.45062 11.5866 8.42535C11.5037 8.40008 11.4222 8.37052 11.3423 8.33666L1.63333 16.8812L10.1404 7.23375C10.047 7.05815 9.97648 6.87395 9.92842 6.68066C9.88062 6.48762 9.85684 6.2918 9.85735 6.09294ZM13.1222 6.91766C13.1538 6.88608 13.1834 6.85298 13.2112 6.81836C13.239 6.78349 13.2646 6.74711 13.2881 6.70946C13.3119 6.67156 13.3331 6.63265 13.3523 6.59247C13.3713 6.5523 13.388 6.51112 13.4024 6.46917C13.4168 6.42698 13.4287 6.38427 13.4383 6.34082C13.4477 6.2971 13.4548 6.25339 13.4591 6.20917C13.4636 6.1647 13.4656 6.12049 13.4649 6.07602C13.4641 6.03155 13.4611 5.98708 13.4553 5.94311C13.4495 5.89889 13.4414 5.85518 13.4305 5.81197C13.4199 5.76877 13.4067 5.72632 13.391 5.68488C13.3753 5.64319 13.3574 5.60251 13.3372 5.56284C13.3169 5.52317 13.2944 5.48477 13.2699 5.44788C13.2451 5.41073 13.2185 5.37536 13.1897 5.34125C13.1609 5.30739 13.1303 5.27505 13.0979 5.24473C13.0655 5.21416 13.0314 5.1856 12.9957 5.15907C12.9598 5.13254 12.9229 5.10803 12.8842 5.0858C12.8457 5.06331 12.806 5.04335 12.7653 5.02541C12.7243 5.00772 12.6826 4.99231 12.6401 4.97942C12.5973 4.96629 12.5543 4.95593 12.5106 4.94784C12.4666 4.93975 12.4226 4.9342 12.378 4.93116C12.3335 4.92813 12.2893 4.92763 12.2448 4.9299C12.2002 4.93192 12.156 4.93647 12.112 4.9438C12.068 4.95087 12.0247 4.96047 11.9817 4.9726C11.939 4.98473 11.897 4.99939 11.8557 5.01631C11.8145 5.03324 11.7746 5.05245 11.7356 5.07392C11.6964 5.0954 11.659 5.11915 11.6225 5.14492C11.5864 5.17095 11.5517 5.19874 11.5186 5.22856C11.4855 5.25837 11.4543 5.28996 11.425 5.32331C11.3954 5.35666 11.3681 5.39153 11.3426 5.42817C11.3173 5.46481 11.294 5.50245 11.2727 5.54187C11.2517 5.58103 11.233 5.62121 11.2166 5.66265C11.2002 5.70383 11.186 5.74603 11.1744 5.78898C11.1627 5.83194 11.1536 5.87539 11.147 5.91936C11.1405 5.96332 11.1362 6.00779 11.1346 6.05226C11.1331 6.09673 11.1341 6.14095 11.1377 6.18542C11.1412 6.22964 11.1473 6.27386 11.1559 6.31732C11.1645 6.36103 11.1756 6.40398 11.189 6.44643C11.2027 6.48888 11.2186 6.53032 11.2368 6.571C11.255 6.61143 11.2755 6.65084 11.2985 6.689C11.3213 6.7274 11.3461 6.76404 11.3732 6.79941C11.4002 6.83479 11.4293 6.86864 11.4602 6.90048C11.491 6.93257 11.5236 6.96289 11.558 6.99119C11.5924 7.01949 11.6281 7.04577 11.6655 7.06977C11.703 7.09403 11.7417 7.11601 11.7816 7.13597C11.8213 7.15568 11.8623 7.17311 11.9043 7.18827C11.946 7.20318 11.9888 7.21581 12.032 7.22617C12.0755 7.23628 12.1193 7.24411 12.1636 7.24917C12.2078 7.25447 12.2521 7.257 12.2966 7.25725C12.4514 7.25725 12.6004 7.22769 12.7435 7.16831C12.8867 7.10919 13.0129 7.0248 13.1222 6.91514V6.91766Z" fill="current" stroke="current"/>
</svg>
