<svg width="23" height="23" viewBox="0 0 23 23" fill="none" xmlns="http://www.w3.org/2000/svg">
<path d="M4.60018 14.9497C3.64565 14.9497 2.78311 15.3407 2.16209 15.9617C0.805032 17.3188 0 23 0 23C0 23 5.68123 22.195 7.03828 20.8379C7.52243 20.3563 7.85254 19.7416 7.98669 19.072C8.12084 18.4024 8.05297 17.708 7.79171 17.0771C7.53045 16.4461 7.08758 15.907 6.51934 15.5282C5.95109 15.1494 5.2831 14.9481 4.60018 14.9497ZM5.41672 19.2163C5.0947 19.5384 2.92112 20.0904 2.92112 20.0904C2.92112 20.0904 3.46164 17.9283 3.79515 17.5948C3.99066 17.3763 4.27817 17.2498 4.60018 17.2498C4.82787 17.2501 5.05037 17.3178 5.23965 17.4444C5.42893 17.5709 5.57653 17.7507 5.66384 17.9609C5.75115 18.1712 5.77427 18.4026 5.7303 18.626C5.68632 18.8495 5.57721 19.0548 5.41672 19.2163V19.2163ZM17.7337 13.3971C25.048 6.08282 22.6099 0.390096 22.6099 0.390096C22.6099 0.390096 16.9172 -2.048 9.60288 5.26629L6.73927 4.69127C6.36702 4.61979 5.98297 4.64003 5.6203 4.75024C5.25762 4.86044 4.92724 5.0573 4.65769 5.32379L0 9.99298L5.75023 12.4541L10.5459 17.2498L13.007 23L17.6647 18.3423C18.2052 17.8018 18.4467 17.0198 18.2972 16.2607L17.7337 13.3971V13.3971ZM6.22175 10.154L4.02516 9.21095L6.29075 6.94536L7.94682 7.27887C7.29129 8.23341 6.70477 9.23395 6.22175 10.154V10.154ZM13.7891 18.9748L12.846 16.7783C13.7661 16.2952 14.7666 15.7087 15.7096 15.0532L16.0431 16.7092L13.7891 18.9748V18.9748ZM16.1006 11.7756C14.5826 13.2936 12.2135 14.5357 11.4545 14.9152L8.08482 11.5455C8.45284 10.798 9.69489 8.42892 11.2244 6.89936C16.6067 1.51714 20.6893 2.31067 20.6893 2.31067C20.6893 2.31067 21.4829 6.39334 16.1006 11.7756ZM14.9506 10.3495C16.2156 10.3495 17.2507 9.31445 17.2507 8.0494C17.2507 6.78435 16.2156 5.74931 14.9506 5.74931C13.6855 5.74931 12.6505 6.78435 12.6505 8.0494C12.6505 9.31445 13.6855 10.3495 14.9506 10.3495Z" fill="white"/>
</svg>
